<?xml version="1.0" encoding="UTF-8"?><svg xmlns="http://www.w3.org/2000/svg" xmlns:xlink="http://www.w3.org/1999/xlink" version="1.1" id="Layer_1" x="0px" y="0px" viewBox="0 0 24 24" xml:space="preserve"><path fill="#303C42" d="M12 0C5.383 0 0 5.383 0 12s5.383 12 12 12 12-5.383 12-12S18.617 0 12 0z"/><path fill="#7CB342" d="M22.025 7.495c-.667.794-1.427 1.49-1.739 1.587-.41-.384-1.403-1.107-2.038-.705-.253.16-.497.514-.219 1.291.359 1.004 1.243 1.914 1.764 2.386-.494.602-1.293 1.69-1.293 2.446 0 .129-.024.165-.24.351-.302.263-.76.66-.76 1.649 0 .636-1.086 1.178-1.825 1.426-.28-.366-.675-.98-.675-1.426 0-.285.052-.352.154-.485.182-.236.346-.491.346-1.015 0-.501-.15-.846-.283-1.15-.121-.279-.217-.498-.217-.85 0-1.305-2.506-1.5-4-1.5-.403 0-1-.159-1-.5 0-.156-.014-.326-.03-.505-.053-.595-.102-1.156.384-1.641C11.124 8.083 12.46 8 13 8c.538 0 .715.084.94.19.373.176.724.31 1.56.31l.577.007c1.069.015 1.992.034 2.536-.502C18.87 7.753 19 7.415 19 7c0-1.805-3.147-2-4.5-2-.94 0-1.6.315-2.181.593-.36.172-.68.325-1.028.383 0-.015.002-.03.005-.047.071-.447.726-1.126 1.43-1.483.498-.253 1.079-.617 1.154-1.2.03-.232-.03-.439-.123-.612.662-.248 1.917-.45 3.02-.527a11.053 11.053 0 0 1 5.248 5.388z"/><path fill="#7CB342" d="M1.003 12.051c.857.172 1.203.785 1.56 1.434.178.325.347.632.583.869.427.426 1 .49 1.419.538.157.017.394.044.435.108 0 .26-.13.46-.362.793-.284.41-.638.918-.638 1.707v2.026a10.948 10.948 0 0 1-2.997-7.475z"/><path fill="#BBDEFB" d="M12 23a10.95 10.95 0 0 1-7-2.521V17.5c0-.476.213-.782.459-1.136C5.712 15.999 6 15.585 6 15c0-.954-.86-1.05-1.324-1.102-.33-.037-.643-.072-.822-.252-.136-.135-.272-.382-.416-.643-.39-.711-.967-1.742-2.39-1.957C1.534 5.426 6.257 1 12 1c.945 0 1.857.132 2.732.357-.848.16-1.701.405-2.086.79a.501.501 0 0 0 .021.727c.18.16.215.24.222.24-.012.024-.103.18-.615.44-.845.428-1.82 1.305-1.965 2.217-.067.414.053.798.337 1.083A.5.5 0 0 0 11 7c.694 0 1.231-.257 1.75-.505C13.283 6.241 13.786 6 14.5 6c1.962 0 3.5.44 3.5 1 0 .206-.064.269-.088.292-.246.242-1.082.226-1.818.215A33.832 33.832 0 0 0 15.5 7.5c-.679 0-.89-.1-1.133-.214C14.083 7.152 13.762 7 13 7c-.824 0-2.356.149-3.354 1.146-.815.816-.729 1.791-.672 2.437.013.148.026.289.026.417 0 .985 1.006 1.5 2 1.5 1.528 0 2.85.285 3 .5 0 .56.167.942.3 1.249.112.256.2.458.2.751 0 .227-.037.275-.137.404-.191.248-.363.518-.363 1.096 0 1.052 1.013 2.207 1.128 2.335a.501.501 0 0 0 .496.15c.294-.076 2.876-.787 2.876-2.485 0-.532.166-.676.417-.894.246-.213.583-.506.583-1.106 0-.4.711-1.436 1.37-2.165a.5.5 0 0 0-.063-.73c-.389-.301-1.462-1.282-1.822-2.234.204.107.459.28.661.483.167.167.39.247.644.237.661-.038 1.526-.852 2.147-1.542A10.94 10.94 0 0 1 23 12c0 6.065-4.935 11-11 11z"/><path opacity="0.1" d="M19 7c0 .415-.13.753-.387 1.005-.038.038-.092.054-.134.086.003.064.009.126.01.19.623-.136 1.435.462 1.797.8.312-.095 1.072-.792 1.739-1.586a11.053 11.053 0 0 0-5.248-5.388c-.105.007-.214.02-.32.03a10.945 10.945 0 0 1 1.662 3.539C18.64 5.973 19 6.394 19 7zm-1.5 9.5c0-.988.458-1.386.76-1.649.216-.186.24-.222.24-.351 0-.757.799-1.844 1.293-2.446-.407-.37-1.028-1.008-1.454-1.748a10.973 10.973 0 0 1-3.335 6.215c.01.444.395 1.044.671 1.405.739-.248 1.825-.79 1.825-1.426zm4.937-7.951c-.62.69-1.486 1.504-2.147 1.542a.833.833 0 0 1-.644-.237 2.86 2.86 0 0 0-.66-.483c.359.952 1.432 1.933 1.82 2.234a.5.5 0 0 1 .065.73c-.66.73-1.371 1.764-1.371 2.165 0 .6-.337.893-.583 1.106-.251.218-.417.362-.417.894 0 1.698-2.582 2.409-2.876 2.484a.501.501 0 0 1-.496-.15c-.088-.097-.698-.796-.982-1.59A10.93 10.93 0 0 1 7.5 19.5c-.861 0-1.695-.11-2.5-.298v1.277A10.95 10.95 0 0 0 12 23c6.065 0 11-4.935 11-11a10.94 10.94 0 0 0-.563-3.451z"/><linearGradient id="SVGID_1_" gradientUnits="userSpaceOnUse" x1="1.1249185" y1="6.9288664" x2="22.875082" y2="17.0711346"><stop offset="0" stop-color="#FFF" stop-opacity="0.2"/><stop offset="1" stop-color="#FFF" stop-opacity="0"/></linearGradient><path fill="url(#SVGID_1_)" d="M12 0C5.383 0 0 5.383 0 12s5.383 12 12 12 12-5.383 12-12S18.617 0 12 0z"/><metadata><rdf:RDF xmlns:rdf="http://www.w3.org/1999/02/22-rdf-syntax-ns#" xmlns:rdfs="http://www.w3.org/2000/01/rdf-schema#" xmlns:dc="http://purl.org/dc/elements/1.1/"><rdf:Description about="https://iconscout.com/legal#licenses" dc:title="map,location,globe,earth,global" dc:description="map,location,globe,earth,global" dc:publisher="Iconscout" dc:date="2017-08-16" dc:format="image/svg+xml" dc:language="en"><dc:creator><rdf:Bag><rdf:li>Those Icons</rdf:li></rdf:Bag></dc:creator></rdf:Description></rdf:RDF></metadata></svg>