<svg xmlns="http://www.w3.org/2000/svg" data-name="Layer 1" viewBox="0 0 512 512"><polygon fill="#ed4769" points="7.5 301.53 106.5 241.11 106.5 272.99 25.85 322.21 7.56 333.38 7.5 333.29 7.5 301.53"/><polygon fill="#ed4769" points="394.34 301.53 394.34 333.29 394.28 333.38 375.99 322.21 200.92 215.36 136.5 254.68 136.5 222.8 200.92 183.48 394.34 301.53"/><polygon fill="#e4eef9" points="25.85 322.21 200.92 215.36 375.99 322.21 375.99 504.5 25.85 504.5 25.85 322.21 25.85 322.21"/><polyline fill="#ed4769" points="117.5 203.5 117.5 171.53 117.5 171.54 311 53.45 504.5 171.54 504.5 171.53 504.5 203.32 504.44 203.41 486.14 192.23 311 85.34 135.86 192.23 117.56 203.41"/><path fill="#eb304a" d="M311,85.35a30.19,30.19,0,0,0-32.11-.41l-143,87.29-18.3,11.18-.06.09v20l.06-.09,18.3-11.18L311,85.35Z"/><polygon fill="#ed4769" points="297.81 61.5 117.5 171.54 117.5 171.53 117.5 175.24 297.81 61.5"/><path fill="#eb304a" d="M504.5,171.54,311,53.45l-13.19,8L483.76,175a22.41,22.41,0,0,1,10.74,19.13v3.22l9.94,6.07.06-.09V171.53Z"/><polygon fill="#eb304a" points="136.5 222.8 136.5 254.68 106.5 272.99 106.5 241.11 136.5 222.8"/><polygon fill="#d5e0f2" points="456.5 192.21 456.5 504.5 106.5 504.5 106.5 272.99 136.5 254.68 136.5 192.21 296.5 94.52 456.5 192.21"/><polygon fill="#e4eef9" points="486.5 192.21 486.5 504.5 136.5 504.5 136.5 192.21 296.5 94.52 311.5 85.36 486.5 192.21"/><path fill="#d5e0f2" d="M311.5,85.36l-15,9.16-160,97.69v1.68l130-79.37,15-9.16L445.83,205.69a22.29,22.29,0,0,1,10.67,19V504.5h30V192.21Z"/><path fill="#f9b15e" d="M136.5,504.5h-71v-159a5,5,0,0,1,5-5h61a5,5,0,0,1,5,5Z"/><path fill="#f9a242" d="M131.5,340.5h-30a5,5,0,0,1,5,5v159h30v-159A5,5,0,0,0,131.5,340.5Z"/><path fill="#52bbe9" d="M268.5,310.5v95h-75v-95a5,5,0,0,1,5-5h65A5,5,0,0,1,268.5,310.5Z"/><path fill="#fff" d="M238.5,305.5v100a7.5,7.5,0,0,1-15,0v-100Z"/><path fill="#52bbe9" d="M429.5,310.5v95h-75v-95a5,5,0,0,1,5-5h65A5,5,0,0,1,429.5,310.5Z"/><rect width="15" height="100" x="384.5" y="305.5" fill="#fff"/><rect width="105" height="25" x="178.5" y="405.5" fill="#8b8893" rx="5"/><path fill="#787681" d="M278.5,405.5h-30a5,5,0,0,1,5,5v15a5,5,0,0,1-5,5h30a5,5,0,0,0,5-5v-15A5,5,0,0,0,278.5,405.5Z"/><rect width="105" height="25" x="339.5" y="405.5" fill="#8b8893" rx="5"/><path fill="#787681" d="M439.5,405.5h-30a5,5,0,0,1,5,5v15a5,5,0,0,1-5,5h30a5,5,0,0,0,5-5v-15A5,5,0,0,0,439.5,405.5Z"/><path fill="#8b8893" d="M429.5,199h-236a7.5,7.5,0,0,1,0-15h236a7.5,7.5,0,0,1,0,15Z"/><path fill="#8b8893" d="M412.79 259a7.5 7.5 0 0 1-7.5-7.5v-60a7.5 7.5 0 1 1 15 0v60A7.5 7.5 0 0 1 412.79 259zM372.47 259a7.5 7.5 0 0 1-7.5-7.5v-60a7.5 7.5 0 0 1 15 0v60A7.5 7.5 0 0 1 372.47 259zM332.16 259a7.5 7.5 0 0 1-7.5-7.5v-60a7.5 7.5 0 0 1 15 0v60A7.5 7.5 0 0 1 332.16 259zM291.84 259a7.5 7.5 0 0 1-7.5-7.5v-60a7.5 7.5 0 0 1 15 0v60A7.5 7.5 0 0 1 291.84 259zM251.53 259a7.5 7.5 0 0 1-7.5-7.5v-60a7.5 7.5 0 1 1 15 0v60A7.5 7.5 0 0 1 251.53 259zM211.21 259a7.5 7.5 0 0 1-7.5-7.5v-60a7.5 7.5 0 0 1 15 0v60A7.5 7.5 0 0 1 211.21 259z"/><rect width="236" height="25" x="193.5" y="251.5" fill="#ed4769" rx="5"/><path fill="#eb304a" d="M424.5,251.5h-30a5,5,0,0,1,5,5v15a5,5,0,0,1-5,5h30a5,5,0,0,0,5-5v-15A5,5,0,0,0,424.5,251.5Z"/><path fill="#787681" d="M504.5,512H7.5a7.5,7.5,0,0,1,0-15h497a7.5,7.5,0,0,1,0,15Z"/><path fill="#18171c" d="M500.53,209.81a7.5,7.5,0,0,0,10.27-2.41l.06-.1a7.55,7.55,0,0,0,1.14-4V171.53a7.48,7.48,0,0,0-3.95-6.6L314.91,47.05a7.48,7.48,0,0,0-7.82,0l-193,117.82a7.49,7.49,0,0,0-4,6.66v32a7.5,7.5,0,0,0,7.5,7.5,7.42,7.42,0,0,0,4.57-1.56l6.93-4.23v13.38L4.05,294.85a7.51,7.51,0,0,0-4,6.66v31.78a7.47,7.47,0,0,0,1.1,3.89l.06.11a.35.35,0,0,0,.05.08l.27.38a7.48,7.48,0,0,0,10,2l6.88-4.2V497H7.5a7.5,7.5,0,0,0,0,15h497a7.5,7.5,0,0,0,0-15H494V205.82ZM129,497H73V348h56Zm0-164H65.5a7.5,7.5,0,0,0-7.5,7.5V497H33.35V326.42L129,268Zm0-82.53L21.94,315.81,15,320.05V305.74l114-69.58ZM479,497H144V256.39a7.44,7.44,0,0,0,0-3.72V196.05L311,94.13,479,196.66Zm12.81-310.09a7.5,7.5,0,0,0-3-1.85L314.91,78.94a7.56,7.56,0,0,0-7.82,0L132,185.83,125,190.08V175.75L311,62.23,497,175.75v14.33ZM186,191.5a7.5,7.5,0,0,0,7.5,7.5h10.21v45H193.5a7.5,7.5,0,0,0-7.5,7.5v25a7.5,7.5,0,0,0,7.5,7.5h236a7.5,7.5,0,0,0,7.5-7.5v-25a7.5,7.5,0,0,0-7.5-7.5h-9.21V199h9.21a7.5,7.5,0,0,0,0-15h-236A7.5,7.5,0,0,0,186,191.5ZM422,259v10H201V259Zm-42-60h25.32v45H380Zm-40.31,0H365v45H339.66Zm-40.32,0h25.32v45H299.34ZM259,199h25.31v45H259Zm-40.32,0H244v45H218.71ZM283.5,398H276V305.5a7.5,7.5,0,0,0-7.5-7.5h-75a7.5,7.5,0,0,0-7.5,7.5V398h-7.5a7.5,7.5,0,0,0-7.5,7.5v25a7.5,7.5,0,0,0,7.5,7.5h105a7.5,7.5,0,0,0,7.5-7.5v-25A7.5,7.5,0,0,0,283.5,398Zm-45-85H261v85H238.5ZM201,313h22.5v85H201Zm75,110H186V413h90ZM437,305.5a7.5,7.5,0,0,0-7.5-7.5h-75a7.5,7.5,0,0,0-7.5,7.5V398h-7.5a7.5,7.5,0,0,0-7.5,7.5v25a7.5,7.5,0,0,0,7.5,7.5h105a7.5,7.5,0,0,0,7.5-7.5v-25a7.5,7.5,0,0,0-7.5-7.5H437ZM399.5,313H422v85H399.5ZM362,313h22.5v85H362Zm75,110H347V413h90Z"/></svg>