<?xml version="1.0" encoding="UTF-8"?><svg xmlns="http://www.w3.org/2000/svg" xmlns:xlink="http://www.w3.org/1999/xlink" version="1.1" id="Layer_1" x="0px" y="0px" viewBox="0 0 24 24" xml:space="preserve"><path fill="#039BE5" d="M16 24v-6h-2v4H2V2h12v4h2V0H0v24z"/><path fill="#039BE5" d="M17 18l7-6-7-6v2.5l3.214 2.5H6v2h14.214L17 15.5z"/><linearGradient id="SVGID_1_" gradientUnits="userSpaceOnUse" x1="-3.167417" y1="6.7925477" x2="21.1423016" y2="18.128355"><stop offset="0" stop-color="#FFF" stop-opacity="0.2"/><stop offset="1" stop-color="#FFF" stop-opacity="0"/></linearGradient><path fill="url(#SVGID_1_)" d="M14 22H2V2h12v4h2V0H0v24h16v-6h-2v4zm3-4l7-6-7-6v2.5l3.214 2.5H6v2h14.214L17 15.5V18z"/><metadata><rdf:RDF xmlns:rdf="http://www.w3.org/1999/02/22-rdf-syntax-ns#" xmlns:rdfs="http://www.w3.org/2000/01/rdf-schema#" xmlns:dc="http://purl.org/dc/elements/1.1/"><rdf:Description about="https://iconscout.com/legal#licenses" dc:title="ui,interface,user,exit,logout" dc:description="ui,interface,user,exit,logout" dc:publisher="Iconscout" dc:date="2017-11-13" dc:format="image/svg+xml" dc:language="en"><dc:creator><rdf:Bag><rdf:li>Those Icons</rdf:li></rdf:Bag></dc:creator></rdf:Description></rdf:RDF></metadata></svg>